<?xml version="1.0" encoding="UTF-8"?>
<svg xmlns="http://www.w3.org/2000/svg" viewBox="0 0 128 128">
    <defs>
        <style>
            .circuit { fill: #2d4a3d; }
            .circuit-dark { fill: #1a2c23; }
            @media (prefers-color-scheme: dark) {
                .circuit { fill: #3d6a4d; }
                .circuit-dark { fill: #2d4a3d; }
            }
        </style>
    </defs>
    <!-- Circuit Board Background -->
    <rect class="circuit-dark" x="0" y="0" width="128" height="128" rx="16"/>
    
    <!-- Circuit Lines -->
    <g class="circuit">
        <!-- Horizontal Lines -->
        <rect x="16" y="32" width="96" height="8" rx="4"/>
        <rect x="16" y="64" width="96" height="8" rx="4"/>
        <rect x="16" y="96" width="96" height="8" rx="4"/>
        
        <!-- Vertical Lines -->
        <rect x="32" y="16" width="8" height="96" rx="4"/>
        <rect x="64" y="16" width="8" height="96" rx="4"/>
        <rect x="96" y="16" width="8" height="96" rx="4"/>
        
        <!-- Circuit Nodes -->
        <circle cx="32" cy="32" r="8"/>
        <circle cx="64" cy="32" r="8"/>
        <circle cx="96" cy="32" r="8"/>
        <circle cx="32" cy="64" r="8"/>
        <circle cx="64" cy="64" r="8"/>
        <circle cx="96" cy="64" r="8"/>
        <circle cx="32" cy="96" r="8"/>
        <circle cx="64" cy="96" r="8"/>
        <circle cx="96" cy="96" r="8"/>
    </g>
</svg>
